<svg width="569" height="168" viewBox="0 0 569 168" fill="none" xmlns="http://www.w3.org/2000/svg">
<g clip-path="url(#clip0_6805_554)">
<path d="M510 120.29C501.61 114.5 501.61 105.81 502.55 96.88C503.84 84.74 504.1 72.29 514.81 63.49C520.87 58.49 527.81 54.78 535.25 56.94C545.99 60.05 556.74 58.07 567.94 58.87C569.17 66.53 566.18 73.45 565.07 80.51C562.68 95.61 560.29 110.74 556.89 125.62C552.25 145.89 538.89 156.56 520.03 156.24C511.27 156.1 503.33 154.09 499.45 145.24C496.24 137.89 499.55 130.24 508.29 122.96C508.965 122.142 509.539 121.245 510 120.29ZM543.28 83.84C543.85 80.73 544.16 77.7 540.45 76.11C535.8 74.11 531.77 75.04 528.77 78.96C525.43 83.32 525.34 88.83 524.6 93.96C523.83 99.35 527.29 101.96 532.13 102.82C536.97 103.68 539.67 100.76 540.85 96.7C542.03 92.64 542.48 88.13 543.26 83.84H543.28ZM535.28 119.34C530.07 118.92 526.7 121.71 523.66 124.78C521.25 127.21 518.74 129.97 520.81 133.86C521.248 134.858 521.95 135.717 522.84 136.346C523.729 136.975 524.774 137.35 525.86 137.43C529.86 137.43 532.02 134.66 533.52 131.43C535.13 128 537 124.48 535.27 119.34H535.28Z" fill="white"/>
<path d="M27.6209 72.1801C29.7989 72.1516 31.9757 72.2954 34.1309 72.6101C49.3609 76.0601 49.3509 76.1001 61.7909 63.8201C45.3409 54.6501 26.7909 50.3101 11.5409 39.3801C11.2709 39.1901 11.8309 37.8401 12.1709 36.2101C27.8909 38.7801 43.7109 41.1101 59.4209 43.9901C85.8809 48.8501 85.8309 48.9901 107.311 33.6801C111.183 30.8329 115.253 28.2664 119.491 26.0001C124.181 23.5801 124.641 23.8401 133.401 25.6301C134.781 33.0101 129.241 36.1801 124.781 40.2801C121.641 43.1801 115.461 44.0701 116.911 50.5701C110.281 47.8601 108.221 54.1401 103.501 56.6701C107.111 69.1101 110.651 81.0001 114.001 93.0001C115.321 97.7801 114.651 101.2 108.381 98.3301L108.181 98.2501L83.3709 71.4801C71.6209 78.6501 59.2209 82.9001 49.2709 90.1801C48.5409 95.1801 53.8109 97.5801 52.2209 101.74C48.7409 105.47 44.4309 100.22 41.0309 103.14L41.1709 102.49C42.4909 98.2801 39.0109 97.4101 36.5209 95.9901C28.0409 91.2001 19.5209 86.4901 10.2109 81.3101C16.0109 78.1801 20.6209 84.4101 27.2109 80.1901C28.5209 79.0401 27.0509 75.2501 27.7909 72.0101L27.6209 72.1801Z" fill="white"/>
<path d="M203.089 49.5999C193.289 47.2699 183.999 49.4199 174.179 47.9199C173.239 41.1699 175.709 35.1799 176.479 28.6499H261.199C262.449 35.6499 259.199 41.0799 258.669 47.5199C248.769 49.6999 239.059 47.5199 228.379 49.1599C221.559 71.3799 220.789 95.2099 214.789 118.24C207.279 120.01 200.089 119.57 191.989 118.75C195.209 95.0599 201.229 72.6799 203.089 49.5999Z" fill="white"/>
<path d="M108.13 98.29L108.33 98.37C112.21 108.63 112.15 108.59 105.61 118.91C98.13 130.723 90.7233 142.58 83.39 154.48C73.06 171.3 71.52 171.34 61.63 154.9C53.09 140.71 44.41 126.61 35.52 112L0 127.41C7.66 115.1 22.88 111.73 30.5 99.14C33.91 99.14 35.94 106.32 41.17 102.49L41.03 103.14C48.22 112.77 51.48 112.14 61.94 98.86C67.67 99.62 73.42 101.21 79.71 99.42C88.24 96.99 97.19 94.01 105.91 99.51C106.26 99.72 107.38 98.72 108.13 98.29Z" fill="#EB565A"/>
<path d="M430.581 98.5199C430.581 92.5199 432.501 84.7999 434.581 77.2199C436.891 68.6799 442.801 62.6399 450.881 59.4099C460.735 55.4162 471.689 55.0617 481.781 58.4099C491.131 61.4099 494.441 66.2199 494.441 75.8999C494.297 85.0939 492.697 94.207 489.701 102.9C486.751 111.9 480.701 117.41 471.161 119.52C462.491 121.45 454.001 122.72 445.251 120.19C433.431 116.84 430.131 112.55 430.581 98.5199ZM472.261 84.8999C473.561 79.3299 470.351 76.4999 465.831 75.0699C461.311 73.6399 458.551 76.4399 456.431 80.1199C453.981 84.3899 453.301 89.1199 452.761 93.8599C452.426 95.8251 452.838 97.8442 453.914 99.5219C454.991 101.2 456.655 102.415 458.581 102.93C463.801 104.64 467.091 101.67 468.871 97.3899C470.511 93.4399 471.171 89.0799 472.261 84.8999Z" fill="white"/>
<path d="M399.401 100.82C392.771 96.87 387.141 96.72 381.621 95.89C370.371 94.21 365.001 90.17 363.881 83C362.411 73.81 367.201 64.78 376.461 60.54C389.461 54.6 402.901 55.05 416.221 59.21C418.967 60.0719 421.327 61.8627 422.896 64.275C424.465 66.6873 425.146 69.5706 424.821 72.43C424.481 76.27 422.821 79.67 418.571 79.43C412.831 79.17 407.011 81.49 401.471 76.04C396.741 71.39 392.471 73.09 385.831 79.4C390.831 83.74 397.211 83.4 402.941 84.47C415.241 86.82 419.771 90.36 420.341 98.84C420.971 108.09 415.071 115.68 404.741 118.84C393.141 122.43 381.461 123 369.911 118.84C361.511 115.84 359.981 112.26 361.711 100.84C369.261 100.7 376.791 98.84 384.371 103.04C388.831 105.68 390.441 104.77 399.401 100.82Z" fill="white"/>
<path d="M265.38 59.9099C270.15 57.6099 273.69 58.5899 277.08 58.6899C283.94 58.8799 290.24 61.4299 297.57 57.1999C304.07 53.4499 312.77 57.6499 316.08 62.9799C318.98 67.6499 317.76 81.6399 313.87 85.4199C312.623 86.599 311.003 87.3062 309.29 87.4199C304.59 87.5099 299.73 88.8799 295.54 86.5999C292.72 83.4199 296.86 80.5999 295.32 77.7399C285.07 76.1199 284.66 76.1799 282.89 84.8699C280.72 95.5599 278.97 106.33 276.96 117.53C269.96 120.4 262.88 119.8 254.82 118.38C258.42 98.4699 261.88 79.2799 265.38 59.9099Z" fill="white"/>
<path d="M135.65 8.68006C128.73 16.8601 118.42 20.2301 110.17 26.5701C105.49 30.1601 101.17 26.7601 97.05 24.0801C83.59 15.3901 69.33 14.0801 54.51 20.0801C48.8699 22.554 43.7315 26.0417 39.35 30.3701C33.35 36.0001 27.27 36.0001 20 32.2201C20.69 26.3001 23.72 22.2201 27.61 18.6901C47.55 0.560059 74.73 -6.44994 100.34 7.00006C110.21 12.2001 118.9 16.2901 129.27 9.11006C130.78 8.11006 133.47 8.74006 135.62 8.62006L135.65 8.68006Z" fill="#EB565A"/>
<path d="M345.74 100.82C351.93 102.12 354.85 105.47 353.69 112C352.63 117.94 348.14 119.63 343.63 121C330.82 125 320.97 116.75 322.63 103.5C324.48 88.7899 326.63 74.1199 330.46 59.4999C337.21 58.0199 343.61 58.8499 351.05 58.9799C350.78 72.9999 345.77 85.7599 345.74 100.82Z" fill="white"/>
<path d="M116.91 50.5899C119.91 51.2199 121.51 48.5899 123.83 47.5899C126.15 46.5899 127.66 43.9599 131.83 44.3599C134.07 61.9399 134.27 78.8399 119.16 94.1399C114.66 78.5099 112.62 64.7299 116.97 50.5899H116.91Z" fill="#EB565A"/>
<path d="M332.83 37C333.14 27.37 338.49 21.84 347.28 22.05C354.16 22.22 359.28 27.2 359.01 33.46C358.7 40.84 351.69 47.69 344.42 47.71C336.69 47.74 332.6 44 332.83 37Z" fill="white"/>
<path d="M27.7893 71.9999C22.4993 69.6999 21.2893 77.1099 16.4593 77.0899C10.3193 68.2599 11.9093 58.8599 12.7093 49.3899C28.5793 51.6399 30.7093 55.0099 27.6193 72.1699L27.7893 71.9999Z" fill="#EB565A"/>
<path d="M135.619 8.65012C136.109 4.94012 138.819 6.09012 141.039 6.17012L140.839 5.99012C139.909 8.43012 137.839 8.73012 135.649 8.68012L135.619 8.65012Z" fill="#EB565A"/>
<path d="M141.001 6.16992C140.591 5.16992 141.381 3.90992 141.811 4.25992C143.971 6.04992 141.171 5.38992 140.811 5.98992L141.001 6.16992Z" fill="#EB565A"/>
</g>
<defs>
<clipPath id="clip0_6805_554">
<rect width="568.21" height="167.16" fill="white"/>
</clipPath>
</defs>
</svg>
