<svg width="569" height="168" viewBox="0 0 569 168" fill="none" xmlns="http://www.w3.org/2000/svg">
<g clip-path="url(#clip0_6805_553)">
<path d="M510 120.45C501.61 114.66 501.61 105.97 502.55 97.0399C503.84 84.8999 504.1 72.4499 514.81 63.6499C520.87 58.6499 527.81 54.9399 535.25 57.0999C545.99 60.2099 556.74 58.2299 567.94 59.0299C569.17 66.6899 566.18 73.6099 565.07 80.6699C562.68 95.7699 560.29 110.9 556.89 125.78C552.25 146.05 538.89 156.72 520.03 156.4C511.27 156.26 503.33 154.25 499.45 145.4C496.24 138.05 499.55 130.4 508.29 123.12C508.965 122.302 509.539 121.405 510 120.45ZM543.28 83.9999C543.85 80.8899 544.16 77.8599 540.45 76.2699C535.8 74.2699 531.77 75.1999 528.77 79.1199C525.43 83.4799 525.34 88.9899 524.6 94.1199C523.83 99.5099 527.29 102.12 532.13 102.98C536.97 103.84 539.67 100.92 540.85 96.8599C542.03 92.7999 542.48 88.2899 543.26 83.9999H543.28ZM535.28 119.5C530.07 119.08 526.7 121.87 523.66 124.94C521.25 127.37 518.74 130.13 520.81 134.02C521.248 135.017 521.95 135.877 522.84 136.506C523.729 137.135 524.774 137.509 525.86 137.59C529.86 137.59 532.02 134.82 533.52 131.59C535.13 128.16 537 124.64 535.27 119.5H535.28Z" fill="#28263E"/>
<path d="M27.6209 72.34C29.7989 72.3115 31.9757 72.4553 34.1309 72.77C49.3609 76.22 49.3509 76.26 61.7909 63.98C45.3409 54.81 26.7909 50.47 11.5409 39.54C11.2709 39.35 11.8309 38 12.1709 36.37C27.8909 38.94 43.7109 41.27 59.4209 44.15C85.8809 49.01 85.8309 49.15 107.311 33.84C111.183 30.9928 115.253 28.4263 119.491 26.16C124.181 23.74 124.641 24 133.401 25.79C134.781 33.17 129.241 36.34 124.781 40.44C121.641 43.34 115.461 44.23 116.911 50.73C110.281 48.02 108.221 54.3 103.501 56.83C107.111 69.27 110.651 81.16 114.001 93.16C115.321 97.94 114.651 101.36 108.381 98.49L108.181 98.41L83.3709 71.64C71.6209 78.81 59.2209 83.06 49.2709 90.34C48.5409 95.34 53.8109 97.74 52.2209 101.9C48.7409 105.63 44.4309 100.38 41.0309 103.3L41.1709 102.65C42.4909 98.44 39.0109 97.57 36.5209 96.15C28.0409 91.36 19.5209 86.65 10.2109 81.47C16.0109 78.34 20.6209 84.57 27.2109 80.35C28.5209 79.2 27.0509 75.41 27.7909 72.17L27.6209 72.34Z" fill="#28263E"/>
<path d="M203.089 49.7599C193.289 47.4299 183.999 49.5799 174.179 48.0799C173.239 41.3299 175.709 35.3399 176.479 28.8099H261.199C262.449 35.8099 259.199 41.2399 258.669 47.6799C248.769 49.8599 239.059 47.6799 228.379 49.3199C221.559 71.5399 220.789 95.3699 214.789 118.4C207.279 120.17 200.089 119.73 191.989 118.91C195.209 95.2199 201.229 72.8399 203.089 49.7599Z" fill="#28263E"/>
<path d="M108.13 98.4499L108.33 98.5299C112.21 108.79 112.15 108.75 105.61 119.07C98.13 130.883 90.7233 142.74 83.39 154.64C73.06 171.46 71.52 171.5 61.63 155.06C53.09 140.87 44.41 126.77 35.52 112.16L0 127.57C7.66 115.26 22.88 111.89 30.5 99.2999C33.91 99.2999 35.94 106.48 41.17 102.65L41.03 103.3C48.22 112.93 51.48 112.3 61.94 99.0199C67.67 99.7799 73.42 101.37 79.71 99.5799C88.24 97.1499 97.19 94.1699 105.91 99.6699C106.26 99.8799 107.38 98.8799 108.13 98.4499Z" fill="#EB565A"/>
<path d="M430.581 98.68C430.581 92.68 432.501 84.96 434.581 77.38C436.891 68.84 442.801 62.8 450.881 59.57C460.735 55.5763 471.689 55.2218 481.781 58.57C491.131 61.57 494.441 66.38 494.441 76.06C494.297 85.2539 492.697 94.367 489.701 103.06C486.751 112.06 480.701 117.57 471.161 119.68C462.491 121.61 454.001 122.88 445.251 120.35C433.431 117 430.131 112.71 430.581 98.68ZM472.261 85.06C473.561 79.49 470.351 76.66 465.831 75.23C461.311 73.8 458.551 76.6 456.431 80.28C453.981 84.55 453.301 89.28 452.761 94.02C452.426 95.9851 452.838 98.0043 453.914 99.682C454.991 101.36 456.655 102.575 458.581 103.09C463.801 104.8 467.091 101.83 468.871 97.55C470.511 93.6 471.171 89.24 472.261 85.06Z" fill="#28263E"/>
<path d="M399.401 100.98C392.771 97.0299 387.141 96.88 381.621 96.0499C370.371 94.3699 365.001 90.3299 363.881 83.16C362.411 73.97 367.201 64.94 376.461 60.7C389.461 54.76 402.901 55.2099 416.221 59.3699C418.967 60.2318 421.327 62.0226 422.896 64.4349C424.465 66.8472 425.146 69.7305 424.821 72.59C424.481 76.43 422.821 79.83 418.571 79.59C412.831 79.33 407.011 81.65 401.471 76.2C396.741 71.55 392.471 73.25 385.831 79.56C390.831 83.9 397.211 83.56 402.941 84.63C415.241 86.98 419.771 90.5199 420.341 98.9999C420.971 108.25 415.071 115.84 404.741 119C393.141 122.59 381.461 123.16 369.911 119C361.511 116 359.981 112.42 361.711 101C369.261 100.86 376.791 99 384.371 103.2C388.831 105.84 390.441 104.93 399.401 100.98Z" fill="#28263E"/>
<path d="M265.38 60.07C270.15 57.77 273.69 58.75 277.08 58.85C283.94 59.04 290.24 61.59 297.57 57.36C304.07 53.61 312.77 57.81 316.08 63.14C318.98 67.81 317.76 81.8 313.87 85.58C312.623 86.759 311.003 87.4662 309.29 87.58C304.59 87.67 299.73 89.04 295.54 86.76C292.72 83.58 296.86 80.76 295.32 77.9C285.07 76.28 284.66 76.34 282.89 85.03C280.72 95.72 278.97 106.49 276.96 117.69C269.96 120.56 262.88 119.96 254.82 118.54C258.42 98.63 261.88 79.44 265.38 60.07Z" fill="#28263E"/>
<path d="M135.65 8.83997C128.73 17.02 118.42 20.39 110.17 26.73C105.49 30.32 101.17 26.92 97.05 24.24C83.59 15.55 69.33 14.24 54.51 20.24C48.8699 22.7139 43.7315 26.2016 39.35 30.53C33.35 36.16 27.27 36.16 20 32.38C20.69 26.46 23.72 22.38 27.61 18.85C47.55 0.719971 74.73 -6.29003 100.34 7.15997C110.21 12.36 118.9 16.45 129.27 9.26997C130.78 8.26997 133.47 8.89997 135.62 8.77997L135.65 8.83997Z" fill="#EB565A"/>
<path d="M345.74 100.98C351.93 102.28 354.85 105.63 353.69 112.16C352.63 118.1 348.14 119.79 343.63 121.16C330.82 125.16 320.97 116.91 322.63 103.66C324.48 88.9499 326.63 74.2799 330.46 59.6599C337.21 58.1799 343.61 59.0099 351.05 59.1399C350.78 73.1599 345.77 85.9199 345.74 100.98Z" fill="#28263E"/>
<path d="M116.91 50.7499C119.91 51.3799 121.51 48.7499 123.83 47.7499C126.15 46.7499 127.66 44.1199 131.83 44.5199C134.07 62.0999 134.27 78.9999 119.16 94.2999C114.66 78.6699 112.62 64.8899 116.97 50.7499H116.91Z" fill="#EB565A"/>
<path d="M332.83 37.1599C333.14 27.5299 338.49 21.9999 347.28 22.2099C354.16 22.3799 359.28 27.3599 359.01 33.6199C358.7 40.9999 351.69 47.8499 344.42 47.8699C336.69 47.8999 332.6 44.1599 332.83 37.1599Z" fill="#28263E"/>
<path d="M27.7893 72.1599C22.4993 69.8599 21.2893 77.2699 16.4593 77.2499C10.3193 68.4199 11.9093 59.0199 12.7093 49.5499C28.5793 51.7999 30.7093 55.1699 27.6193 72.3299L27.7893 72.1599Z" fill="#EB565A"/>
<path d="M135.619 8.81003C136.109 5.10003 138.819 6.25003 141.039 6.33003L140.839 6.15003C139.909 8.59003 137.839 8.89003 135.649 8.84003L135.619 8.81003Z" fill="#EB565A"/>
<path d="M141.001 6.32984C140.591 5.32984 141.381 4.06984 141.811 4.41984C143.971 6.20984 141.171 5.54983 140.811 6.14983L141.001 6.32984Z" fill="#EB565A"/>
</g>
<defs>
<clipPath id="clip0_6805_553">
<rect width="568.21" height="167.16" fill="white" transform="translate(0 0.159912)"/>
</clipPath>
</defs>
</svg>
